<svg width="75" height="75" viewBox="0 0 75 75" fill="none" xmlns="http://www.w3.org/2000/svg">
<circle cx="37.5" cy="37.5" r="37.5" fill="#F15A15" fill-opacity="0.15"/>
<path d="M60.7461 57.3813L57.3761 48.0613C59.7251 43.2275 60.2503 37.7083 58.8551 32.5182C57.4599 27.3281 54.238 22.8161 49.7819 19.8117C45.3258 16.8073 39.9349 15.5125 34.6003 16.1652C29.2658 16.818 24.3462 19.3744 20.7459 23.3646C17.1456 27.3548 15.1068 32.5105 15.0041 37.8838C14.9014 43.2572 16.7418 48.487 20.187 52.6118C23.6322 56.7366 28.4506 59.4792 33.7563 60.3352C39.062 61.1913 44.4985 60.1033 49.0661 57.2713L59.0661 59.3613C59.3271 59.4188 59.5988 59.4045 59.8523 59.32C60.1059 59.2355 60.3318 59.0839 60.5061 58.8813C60.6751 58.6748 60.7863 58.4272 60.8285 58.1637C60.8706 57.9002 60.8422 57.6303 60.7461 57.3813ZM49.0761 54.2113C48.8826 54.1718 48.6831 54.1709 48.4892 54.2086C48.2952 54.2464 48.1107 54.322 47.9461 54.4313C44.0253 57.0186 39.2956 58.0871 34.6433 57.4365C29.9911 56.786 25.7359 54.4611 22.6752 50.8976C19.6145 47.3341 17.9585 42.7766 18.0177 38.0795C18.0768 33.3824 19.847 28.8681 22.9965 25.3828C26.1459 21.8975 30.4583 19.6804 35.1255 19.1472C39.7926 18.614 44.494 19.8013 48.3484 22.4865C52.2027 25.1716 54.9455 29.1703 56.0625 33.7331C57.1796 38.2958 56.5942 43.1093 54.4161 47.2713C54.3169 47.4555 54.2584 47.6589 54.2445 47.8676C54.2307 48.0764 54.262 48.2857 54.3361 48.4813L56.9961 55.8813L49.0761 54.2113Z" fill="#F15A15"/>
<path d="M46.6661 36.8413H28.9161C28.5183 36.8413 28.1368 36.9993 27.8554 37.2806C27.5741 37.562 27.4161 37.9435 27.4161 38.3413C27.4161 38.7391 27.5741 39.1207 27.8554 39.402C28.1368 39.6833 28.5183 39.8413 28.9161 39.8413H46.6661C47.0639 39.8413 47.4455 39.6833 47.7268 39.402C48.0081 39.1207 48.1661 38.7391 48.1661 38.3413C48.1661 37.9435 48.0081 37.562 47.7268 37.2806C47.4455 36.9993 47.0639 36.8413 46.6661 36.8413Z" fill="#F15A15"/>
<path d="M36.4161 43.0813H28.9161C28.5183 43.0813 28.1368 43.2393 27.8554 43.5206C27.5741 43.8019 27.4161 44.1835 27.4161 44.5813C27.4161 44.9791 27.5741 45.3607 27.8554 45.642C28.1368 45.9233 28.5183 46.0813 28.9161 46.0813H36.4161C36.8139 46.0813 37.1955 45.9233 37.4768 45.642C37.7581 45.3607 37.9161 44.9791 37.9161 44.5813C37.9161 44.1835 37.7581 43.8019 37.4768 43.5206C37.1955 43.2393 36.8139 43.0813 36.4161 43.0813Z" fill="#F15A15"/>
<path d="M46.6661 30.0013H28.9161C28.5183 30.0013 28.1368 30.1594 27.8554 30.4407C27.5741 30.722 27.4161 31.1035 27.4161 31.5013C27.4161 31.8992 27.5741 32.2807 27.8554 32.562C28.1368 32.8433 28.5183 33.0013 28.9161 33.0013H46.6661C47.0639 33.0013 47.4455 32.8433 47.7268 32.562C48.0081 32.2807 48.1661 31.8992 48.1661 31.5013C48.1661 31.1035 48.0081 30.722 47.7268 30.4407C47.4455 30.1594 47.0639 30.0013 46.6661 30.0013Z" fill="#F15A15"/>
</svg>
