<svg width="457" height="312" viewBox="0 0 457 312" fill="none" xmlns="http://www.w3.org/2000/svg">
<path d="M108 150C108 67.1573 175.157 0 258 0H457V162C457 244.843 389.843 312 307 312H108V150Z" fill="#DE4C09"/>
<path d="M370.79 31H246.882C245.22 31.0139 243.577 31.3552 242.048 32.0045C240.518 32.6537 239.131 33.5981 237.967 34.7837C236.802 35.9692 235.883 37.3727 235.262 38.9138C234.64 40.455 234.328 42.1035 234.344 43.7652V298.834C234.316 302.188 235.621 305.417 237.971 307.811C240.322 310.204 243.527 311.567 246.882 311.599H370.79C374.145 311.567 377.351 310.204 379.703 307.811C382.055 305.418 383.361 302.189 383.335 298.834V43.7652C383.363 40.4091 382.058 37.1792 379.705 34.7854C377.353 32.3917 374.146 31.0301 370.79 31ZM375.49 290.944C375.49 297.657 370.463 303.094 364.267 303.094H253.397C247.185 303.094 242.158 297.657 242.158 290.944V53.4321C242.158 39.7633 247.185 39.0874 253.397 39.0874H275.609C276.9 39.0874 277.956 40.553 277.956 42.3679V43.1273C277.956 47.3874 280.287 47.395 283.142 47.395H334.491C337.377 47.395 339.693 47.395 339.693 43.1273V42.3679C339.693 40.553 340.734 39.0874 342.047 39.0874H364.252C370.448 39.0874 375.475 40.9023 375.475 53.4321L375.49 290.944Z" fill="#263238"/>
<path d="M375.498 53.6372V291.156C375.498 297.869 370.471 303.306 364.274 303.306H253.405C247.193 303.306 242.166 297.877 242.166 291.156V53.6372C242.166 39.9683 247.193 39.3 253.405 39.3H275.617C276.908 39.3 277.963 40.7657 277.963 42.5806V43.34C277.963 47.6001 280.294 47.6153 283.15 47.6153H334.514C337.4 47.6153 339.716 47.6153 339.716 43.34V42.5806C339.716 40.7657 340.756 39.3 342.07 39.3H364.274C370.509 39.3 375.498 41.115 375.498 53.6372Z" fill="white"/>
<path d="M375.499 53.6447V75.1884H242.175V53.6447C242.175 39.9759 247.202 39.3 253.414 39.3H275.626C276.917 39.3 277.972 40.7657 277.972 42.5806V43.34C277.972 47.5925 280.303 47.6077 283.159 47.6077H334.516C337.401 47.6077 339.717 47.6077 339.717 43.34V42.5806C339.717 40.7657 340.758 39.3 342.071 39.3H364.276C370.51 39.3 375.499 41.115 375.499 53.6447Z" fill="#FD9700"/>
<path d="M315.832 42.1097H301.829C301.714 42.1088 301.599 42.0847 301.493 42.0388C301.387 41.993 301.291 41.9263 301.211 41.8428C301.131 41.7593 301.069 41.6605 301.027 41.5525C300.986 41.4444 300.967 41.3292 300.971 41.2136C300.971 40.9853 301.061 40.7663 301.222 40.6042C301.383 40.442 301.601 40.3499 301.829 40.3479H315.832C315.946 40.3469 316.06 40.3686 316.166 40.4116C316.272 40.4547 316.368 40.5183 316.449 40.5988C316.53 40.6793 316.595 40.775 316.639 40.8806C316.683 40.9861 316.705 41.0993 316.705 41.2136C316.71 41.3305 316.69 41.447 316.648 41.556C316.606 41.6651 316.542 41.7645 316.46 41.8482C316.379 41.932 316.281 41.9983 316.173 42.0433C316.065 42.0882 315.949 42.1108 315.832 42.1097Z" fill="white"/>
<path d="M271.789 44.4259C271.721 44.4943 271.645 44.5626 271.576 44.6385C271.532 44.6752 271.492 44.7158 271.455 44.76C271.183 44.488 270.861 44.2721 270.506 44.1248C270.151 43.9775 269.77 43.9017 269.386 43.9017C269.001 43.9017 268.621 43.9775 268.266 44.1248C267.91 44.2721 267.588 44.488 267.316 44.76L267.202 44.6385L266.99 44.4259L267.263 44.1905C267.454 44.0314 267.663 43.8963 267.886 43.788C268.159 43.6494 268.451 43.5497 268.752 43.4919L269.169 43.4387H269.511H269.792C270.051 43.4688 270.306 43.53 270.551 43.621C270.732 43.6818 270.906 43.7633 271.068 43.864C271.243 43.962 271.408 44.0765 271.561 44.2057L271.789 44.4107V44.4259Z" fill="white"/>
<path d="M267.993 45.4359L267.651 45.0941C268.11 44.6365 268.731 44.3794 269.379 44.3794C270.027 44.3794 270.648 44.6365 271.106 45.0941L270.765 45.4283C270.583 45.2456 270.366 45.1011 270.127 45.0033C269.889 44.9055 269.633 44.8563 269.375 44.8587C269.118 44.8566 268.863 44.9067 268.625 45.0059C268.387 45.1051 268.172 45.2513 267.993 45.4359Z" fill="white"/>
<path d="M270.429 45.77L270.095 46.1042C270.001 46.0111 269.89 45.9376 269.767 45.888C269.645 45.8385 269.514 45.8139 269.382 45.8156C269.25 45.8141 269.119 45.8396 268.998 45.8906C268.876 45.9415 268.767 46.0168 268.675 46.1118L268.334 45.77C268.471 45.6314 268.634 45.5213 268.814 45.4461C268.994 45.371 269.187 45.3323 269.382 45.3323C269.576 45.3323 269.769 45.371 269.949 45.4461C270.129 45.5213 270.292 45.6314 270.429 45.77Z" fill="white"/>
<path d="M269.692 46.4157C269.693 46.4775 269.676 46.5385 269.643 46.5907C269.61 46.6429 269.562 46.6839 269.505 46.7087C269.448 46.7334 269.385 46.7407 269.325 46.7295C269.264 46.7184 269.207 46.6893 269.163 46.6461C269.119 46.6029 269.088 46.5474 269.076 46.4868C269.063 46.4263 269.069 46.3633 269.092 46.3059C269.115 46.2486 269.155 46.1995 269.207 46.165C269.258 46.1304 269.319 46.1119 269.38 46.1119C269.421 46.1109 269.461 46.118 269.499 46.1328C269.537 46.1476 269.571 46.1698 269.6 46.1981C269.629 46.2265 269.652 46.2603 269.668 46.2976C269.684 46.335 269.692 46.3751 269.692 46.4157Z" fill="white"/>
<path d="M250.869 45.0713C250.868 44.895 250.919 44.7221 251.016 44.5749C251.113 44.4276 251.251 44.3126 251.414 44.2444C251.577 44.1762 251.756 44.158 251.929 44.192C252.102 44.226 252.261 44.3108 252.386 44.4355C252.511 44.5602 252.595 44.7192 252.629 44.8923C252.663 45.0653 252.645 45.2446 252.577 45.4073C252.509 45.5699 252.394 45.7086 252.247 45.8056C252.099 45.9027 251.926 45.9537 251.75 45.9522C251.516 45.9522 251.292 45.8594 251.127 45.6942C250.962 45.529 250.869 45.305 250.869 45.0713Z" fill="white"/>
<path d="M253.655 45.0713C253.655 44.8971 253.706 44.7268 253.803 44.5819C253.9 44.4371 254.037 44.3242 254.198 44.2575C254.359 44.1908 254.536 44.1734 254.707 44.2074C254.878 44.2413 255.035 44.3252 255.158 44.4484C255.282 44.5716 255.365 44.7286 255.399 44.8995C255.433 45.0703 255.416 45.2474 255.349 45.4084C255.283 45.5694 255.17 45.7069 255.025 45.8037C254.88 45.9005 254.71 45.9522 254.535 45.9522C254.302 45.9522 254.078 45.8594 253.913 45.6942C253.747 45.529 253.655 45.3049 253.655 45.0713Z" fill="white"/>
<path d="M256.434 45.0713C256.433 44.895 256.484 44.7221 256.581 44.5749C256.678 44.4276 256.816 44.3126 256.979 44.2444C257.142 44.1762 257.321 44.158 257.494 44.192C257.667 44.226 257.826 44.3108 257.951 44.4355C258.075 44.5602 258.16 44.7192 258.194 44.8923C258.228 45.0653 258.21 45.2446 258.142 45.4073C258.074 45.5699 257.959 45.7086 257.811 45.8056C257.664 45.9027 257.491 45.9537 257.315 45.9522C257.081 45.9522 256.857 45.8594 256.692 45.6942C256.527 45.529 256.434 45.305 256.434 45.0713Z" fill="white"/>
<path d="M259.214 45.0714C259.212 44.8953 259.263 44.7228 259.36 44.5757C259.456 44.4286 259.594 44.3135 259.757 44.2451C259.919 44.1767 260.098 44.158 260.271 44.1914C260.443 44.2249 260.602 44.3089 260.727 44.4328C260.853 44.5568 260.938 44.7151 260.973 44.8876C261.008 45.0602 260.991 45.2392 260.924 45.402C260.857 45.5648 260.743 45.704 260.596 45.802C260.45 45.8999 260.278 45.9522 260.102 45.9522C259.868 45.9523 259.643 45.8597 259.476 45.6947C259.31 45.5297 259.216 45.3057 259.214 45.0714Z" fill="white"/>
<path d="M262.002 45.0713C262 44.895 262.051 44.7221 262.148 44.5749C262.245 44.4276 262.384 44.3126 262.547 44.2444C262.709 44.1762 262.889 44.158 263.062 44.192C263.235 44.226 263.394 44.3108 263.519 44.4355C263.643 44.5602 263.728 44.7192 263.762 44.8923C263.796 45.0653 263.778 45.2446 263.71 45.4073C263.642 45.5699 263.526 45.7086 263.379 45.8056C263.232 45.9027 263.059 45.9537 262.883 45.9522C262.649 45.9522 262.425 45.8594 262.26 45.6942C262.095 45.529 262.002 45.305 262.002 45.0713Z" fill="white"/>
<path d="M365.498 47.0002H358.307V43.6665H365.498V47.0002ZM358.664 46.6357H365.118V44.031H358.664V46.6357Z" fill="white"/>
<path d="M363.537 44.2361H358.897V46.4383H363.537V44.2361Z" fill="white"/>
<path d="M366.135 44.4412H365.497V46.2257H366.135V44.4412Z" fill="white"/>
<path d="M254.81 66.9491L250.869 63.2585L254.81 59.5679L255.418 60.2209L252.175 63.2585L255.418 66.296L254.81 66.9491Z" fill="white"/>
<path d="M363.408 67.215H360.75V66.2734C360.749 66.2356 360.738 66.1988 360.718 66.1668C360.698 66.1348 360.67 66.1086 360.637 66.0911C360.534 66.0391 360.435 65.9808 360.34 65.9165C360.306 65.8957 360.267 65.8847 360.227 65.8847C360.186 65.8847 360.147 65.8957 360.113 65.9165L359.315 66.3797L357.986 64.1015L358.791 63.6383C358.823 63.6165 358.849 63.5869 358.866 63.5523C358.883 63.5178 358.892 63.4794 358.89 63.4409C358.89 63.3877 358.89 63.327 358.89 63.2738C358.89 63.2207 358.89 63.1599 358.89 63.1067C358.892 63.0671 358.883 63.0277 358.866 62.992C358.849 62.9562 358.823 62.9252 358.791 62.9017L357.986 62.4461L359.315 60.1679L360.113 60.6312C360.146 60.6513 360.184 60.6619 360.223 60.6619C360.262 60.6619 360.3 60.6513 360.333 60.6312L360.637 60.4641C360.671 60.4453 360.699 60.4179 360.719 60.3845C360.739 60.3512 360.75 60.3131 360.75 60.2743V59.3022H363.408V60.1983C363.408 60.2374 363.419 60.2757 363.439 60.3092C363.459 60.3427 363.488 60.37 363.522 60.3882C363.624 60.4377 363.723 60.4935 363.818 60.5552C363.853 60.5752 363.892 60.5857 363.932 60.5857C363.972 60.5857 364.012 60.5752 364.046 60.5552L364.844 60.092L366.172 62.3701L365.368 62.8334C365.333 62.8527 365.306 62.8818 365.288 62.917C365.27 62.9522 365.264 62.9918 365.269 63.0308V63.3649C365.264 63.4039 365.27 63.4436 365.288 63.4787C365.306 63.5139 365.333 63.543 365.368 63.5624L366.172 64.0256L364.844 66.3037L364.039 65.8405C364.005 65.8204 363.967 65.8098 363.928 65.8098C363.89 65.8098 363.852 65.8204 363.818 65.8405C363.723 65.9048 363.624 65.9632 363.522 66.0152C363.489 66.0327 363.461 66.0588 363.441 66.0908C363.421 66.1229 363.409 66.1597 363.408 66.1974V67.215ZM361.32 66.6455H362.839V66.2734C362.837 66.1298 362.876 65.9886 362.951 65.8663C363.027 65.744 363.135 65.6455 363.264 65.5823L363.507 65.4456C363.629 65.3671 363.772 65.3254 363.917 65.3254C364.063 65.3254 364.205 65.3671 364.327 65.4456L364.631 65.6203L365.39 64.3066L365.079 64.1319C364.947 64.0575 364.841 63.9455 364.773 63.8102C364.705 63.6749 364.68 63.5225 364.699 63.3725V63.0916C364.69 62.9481 364.721 62.8049 364.789 62.6785C364.858 62.5522 364.961 62.4479 365.087 62.3777L365.39 62.1955L364.631 60.8818L364.327 61.064C364.205 61.1425 364.063 61.1842 363.917 61.1842C363.772 61.1842 363.629 61.1425 363.507 61.064C363.431 61.0095 363.35 60.9637 363.264 60.9273C363.134 60.8636 363.025 60.7639 362.949 60.6401C362.874 60.5164 362.836 60.3736 362.839 60.2287V59.8794H361.32V60.1983C361.323 60.344 361.283 60.4874 361.206 60.6112C361.13 60.7351 361.019 60.8343 360.887 60.8969C360.803 60.9367 360.722 60.9824 360.644 61.0336C360.523 61.1106 360.382 61.1515 360.238 61.1515C360.094 61.1515 359.953 61.1106 359.832 61.0336L359.52 60.8514L358.761 62.1651L359.065 62.3474C359.191 62.418 359.295 62.5236 359.364 62.6514C359.433 62.7793 359.463 62.9241 359.452 63.0688V63.3497C359.462 63.4932 359.43 63.6364 359.362 63.7628C359.293 63.8891 359.19 63.9934 359.065 64.0636L358.761 64.2382L359.52 65.552L359.832 65.3773C359.954 65.2988 360.096 65.2571 360.242 65.2571C360.387 65.2571 360.529 65.2988 360.652 65.3773C360.73 65.4298 360.811 65.478 360.895 65.5216C361.024 65.5848 361.132 65.6832 361.207 65.8055C361.283 65.9278 361.322 66.069 361.32 66.2126V66.6455ZM362.079 65.2482C361.685 65.2497 361.298 65.1342 360.969 64.9163C360.64 64.6985 360.383 64.388 360.23 64.024C360.078 63.6601 360.036 63.2591 360.111 62.8716C360.186 62.4841 360.374 62.1276 360.652 61.8469C360.929 61.5662 361.284 61.3741 361.67 61.2947C362.057 61.2153 362.458 61.2522 362.824 61.4009C363.189 61.5495 363.503 61.8031 363.725 62.1297C363.946 62.4562 364.066 62.8412 364.069 63.2358C364.072 63.499 364.023 63.7602 363.924 64.0042C363.826 64.2482 363.679 64.4703 363.494 64.6574C363.309 64.8446 363.089 64.9932 362.846 65.0946C362.603 65.196 362.343 65.2482 362.079 65.2482ZM362.079 61.831C361.796 61.8295 361.518 61.9126 361.282 62.0695C361.046 62.2265 360.862 62.4503 360.753 62.7124C360.644 62.9745 360.616 63.2629 360.673 63.5409C360.729 63.819 360.866 64.074 361.068 64.2735C361.27 64.473 361.526 64.6079 361.805 64.661C362.083 64.7141 362.371 64.683 362.632 64.5717C362.893 64.4603 363.115 64.2738 363.269 64.0359C363.424 63.798 363.504 63.5194 363.499 63.2358C363.493 62.8625 363.342 62.5063 363.076 62.2437C362.811 61.9811 362.453 61.8329 362.079 61.831Z" fill="white"/>
<path d="M356.407 218.666H261.272V138.187L308.832 107.979L356.407 138.187V218.666Z" fill="#FD9700"/>
<path opacity="0.2" d="M356.407 218.666H261.272V138.187L308.832 107.979L356.407 138.187V218.666Z" fill="black"/>
<path d="M351.045 212.507H266.632V104.151H329.312L351.045 124.799V212.507Z" fill="#EBEBEB"/>
<path d="M329.314 104.151L351.047 124.799H329.314V104.151Z" fill="#DBDBDB"/>
<path d="M274.873 125.118H321.803V122.338H274.873V125.118Z" fill="#DBDBDB"/>
<path d="M274.873 132.142H321.803V129.363H274.873V132.142Z" fill="#DBDBDB"/>
<path d="M274.873 139.159H321.803V136.379H274.873V139.159Z" fill="#DBDBDB"/>
<path d="M274.864 146.183H343.626V143.404H274.864V146.183Z" fill="#DBDBDB"/>
<path d="M274.864 153.207H343.626V150.428H274.864V153.207Z" fill="#DBDBDB"/>
<path d="M274.864 160.231H343.626V157.452H274.864V160.231Z" fill="#DBDBDB"/>
<path d="M274.864 167.256H343.626V164.477H274.864V167.256Z" fill="#DBDBDB"/>
<path d="M274.864 174.272H343.626V171.493H274.864V174.272Z" fill="#DBDBDB"/>
<path d="M274.864 181.297H343.626V178.517H274.864V181.297Z" fill="#DBDBDB"/>
<path d="M274.864 188.313H343.626V185.534H274.864V188.313Z" fill="#DBDBDB"/>
<path d="M274.864 195.345H343.626V192.566H274.864V195.345Z" fill="#DBDBDB"/>
<path d="M274.864 202.369H343.626V199.59H274.864V202.369Z" fill="#DBDBDB"/>
<path d="M356.407 158.333V218.666H261.272V158.333C265.358 160.611 269.375 163.072 273.422 165.441C277.47 167.81 281.479 170.27 285.481 172.731C289.939 175.442 294.396 178.206 298.839 180.985L298.983 180.902C298.937 180.902 298.915 180.978 298.869 181.001C302.195 183.071 305.524 185.154 308.855 187.25C312.173 185.162 315.499 183.058 318.826 181.001C318.788 181.001 318.757 180.932 318.712 180.902C318.756 180.933 318.805 180.958 318.856 180.978C323.296 178.203 327.748 175.449 332.213 172.716C336.213 170.27 340.227 167.846 344.257 165.441C348.312 163.072 352.322 160.642 356.407 158.333Z" fill="#FD9700"/>
<g opacity="0.2">
<path d="M356.406 158.333C352.563 161.029 348.652 163.649 344.779 166.276C340.907 168.904 336.965 171.471 333.032 174.045C328.931 176.733 324.823 179.396 320.707 182.034L320.335 182.292L309.377 189.293L308.83 189.62L308.306 189.293C304.646 186.959 300.996 184.626 297.356 182.292L296.976 182.049C292.845 179.406 288.73 176.738 284.629 174.045C280.711 171.486 276.8 168.889 272.897 166.292C268.993 163.694 265.113 161.044 261.27 158.348C265.356 160.627 269.373 163.087 273.42 165.456C277.468 167.826 281.478 170.286 285.479 172.746C289.937 175.457 294.395 178.221 298.837 181.001C302.163 183.071 305.492 185.155 308.823 187.25C312.141 185.162 315.467 183.059 318.793 181.001C323.233 178.227 327.686 175.472 332.151 172.739C336.15 170.293 340.165 167.869 344.195 165.464C348.311 163.072 352.32 160.642 356.406 158.333Z" fill="black"/>
<path d="M298.975 180.94C298.929 180.94 298.906 181.016 298.861 181.039C298.354 181.469 297.848 181.894 297.342 182.314C294.957 184.327 292.512 186.256 290.029 188.131C286.992 190.409 283.901 192.688 280.787 194.859C277.674 197.031 274.515 199.157 271.303 201.215C268.091 203.273 264.84 205.286 261.484 207.131C264.37 204.602 267.369 202.241 270.399 199.947C273.429 197.654 276.542 195.391 279.641 193.212C282.739 191.032 285.928 188.898 289.141 186.84C291.7 185.2 294.304 183.583 296.962 182.071C297.57 181.715 298.185 181.373 298.815 181.023L298.975 180.94Z" fill="black"/>
<path d="M356.177 207.093C352.821 205.248 349.563 203.235 346.366 201.178C343.169 199.12 340.002 196.978 336.866 194.822C333.73 192.665 330.647 190.402 327.617 188.093C325.149 186.218 322.703 184.297 320.334 182.292L318.815 181.001C318.777 181.001 318.747 180.932 318.702 180.902C318.746 180.933 318.795 180.959 318.846 180.978C319.476 181.335 320.091 181.677 320.706 182.034C323.364 183.552 325.946 185.162 328.52 186.802C331.733 188.86 334.876 191.002 338.005 193.174C341.134 195.346 344.217 197.593 347.247 199.909C350.277 202.226 353.291 204.564 356.177 207.093Z" fill="black"/>
</g>
<path d="M275.138 240.657H261.272V254.524H275.138V240.657Z" fill="#EBEBEB"/>
<path d="M295.398 240.657H281.532V254.524H295.398V240.657Z" fill="#EBEBEB"/>
<path d="M315.658 240.657H301.792V254.524H315.658V240.657Z" fill="#EBEBEB"/>
<path d="M335.919 240.657H322.052V254.524H335.919V240.657Z" fill="#EBEBEB"/>
<path d="M356.187 240.657H342.321V254.524H356.187V240.657Z" fill="#EBEBEB"/>
<path d="M355.755 261.829H260.848V263.325H355.755V261.829Z" fill="#EBEBEB"/>
<path d="M355.755 265.778H260.848V267.274H355.755V265.778Z" fill="#EBEBEB"/>
<path d="M355.755 269.734H260.848V271.23H355.755V269.734Z" fill="#EBEBEB"/>
<path d="M304.907 273.683H260.848V275.179H304.907V273.683Z" fill="#EBEBEB"/>
<path d="M261.631 123.986H260.552V123.417H263.59V123.986H261.631ZM256.755 123.933L253.718 123.85V123.28L256.755 123.364V123.933ZM267.387 123.933V123.364C268.389 123.364 269.399 123.318 270.424 123.28V123.85C269.407 123.865 268.397 123.888 267.394 123.91L267.387 123.933ZM274.221 123.698V123.128L277.259 122.976V123.546L274.221 123.698ZM249.921 123.698C248.896 123.637 247.878 123.569 246.883 123.493L246.921 122.923C247.916 122.999 248.919 123.067 249.959 123.128L249.921 123.698ZM281.056 123.326L281.018 122.756L284.055 122.543L284.101 123.113L281.056 123.326ZM243.086 123.159C242.054 123.052 241.051 122.938 240.049 122.809L240.117 122.247C241.097 122.369 242.107 122.483 243.155 122.589L243.086 123.159ZM287.89 122.809L287.837 122.24L290.874 121.974L290.927 122.543L287.89 122.809ZM236.313 122.285C235.288 122.126 234.285 121.951 233.275 121.769L233.382 121.215C234.354 121.389 235.348 121.564 236.366 121.723L236.313 122.285ZM294.694 122.179L294.641 121.609L297.678 121.298L297.739 121.868L294.694 122.179ZM301.528 121.42L301.46 120.85L302.219 120.759C302.979 120.675 303.7 120.584 304.437 120.486L304.513 121.047L302.28 121.328L301.528 121.42ZM229.57 120.949C228.567 120.721 227.572 120.478 226.616 120.189L226.76 119.635C227.709 119.893 228.696 120.129 229.699 120.356L229.57 120.949ZM308.241 120.486L308.15 119.924C309.153 119.757 310.147 119.589 311.142 119.4L311.249 119.962C310.256 120.144 309.254 120.318 308.241 120.486ZM314.985 119.225L314.871 118.671C315.858 118.458 316.845 118.245 317.832 118.018L317.954 118.572C316.997 118.8 316.01 119.012 315.015 119.225H314.985ZM222.925 119.179C221.945 118.868 220.973 118.534 220.039 118.192L220.237 117.661C221.163 117.995 222.128 118.329 223.1 118.64L222.925 119.179ZM321.644 117.661L321.5 117.114C322.48 116.863 323.459 116.605 324.431 116.354L324.583 116.901L321.644 117.661ZM216.501 116.757C215.559 116.339 214.632 115.899 213.744 115.443L214.002 114.934C214.883 115.39 215.802 115.823 216.728 116.233L216.501 116.757ZM328.236 115.846L328.076 115.299L330.97 114.418L331.137 114.957C330.21 115.269 329.246 115.565 328.274 115.853L328.236 115.846ZM334.759 113.788L334.577 113.249C335.541 112.922 336.498 112.596 337.447 112.261L337.637 112.801L334.759 113.788ZM210.418 113.575C209.545 113.036 208.687 112.466 207.874 111.882L208.208 111.419C209.013 111.996 209.856 112.558 210.722 113.089L210.418 113.575ZM341.214 111.51L341.016 110.97C341.965 110.621 342.915 110.264 343.856 109.9L344.061 110.431C343.173 110.803 342.208 111.16 341.252 111.517L341.214 111.51ZM204.92 109.558C204.145 108.89 203.401 108.191 202.687 107.462L203.097 107.067C203.796 107.773 204.533 108.472 205.292 109.125L204.92 109.558ZM347.638 109.072L347.418 108.548C348.367 108.161 349.301 107.789 350.228 107.386L350.448 107.91C349.521 108.267 348.58 108.654 347.638 109.034V109.072ZM353.941 106.414L353.713 105.89L356.492 104.66L356.72 105.176C355.809 105.556 354.883 105.966 353.941 106.376V106.414ZM200.144 104.614C199.498 103.811 198.929 102.949 198.442 102.04L198.944 101.774C199.413 102.653 199.964 103.484 200.592 104.258L200.144 104.614ZM360.175 103.582L359.94 103.065C360.859 102.632 361.778 102.2 362.681 101.759L362.924 102.276C362.021 102.678 361.109 103.111 360.175 103.544V103.582ZM366.342 100.597L366.083 100.089L368.794 98.7141L369.053 99.2229L366.342 100.597ZM197.152 98.3951C197.024 97.709 196.96 97.0124 196.962 96.3144C196.962 95.9727 196.962 95.6386 197.007 95.2969L197.569 95.3424C197.569 95.669 197.531 95.9879 197.531 96.3144C197.532 96.9764 197.591 97.637 197.706 98.2888L197.152 98.3951ZM372.424 97.4079L372.158 96.9067C373.07 96.4207 373.966 95.9423 374.839 95.4639L375.112 95.9651L372.424 97.4079ZM378.439 94.1274L378.165 93.6338L380.808 92.115L381.089 92.6086C380.231 93.1326 379.35 93.611 378.439 94.1426V94.1274ZM198.465 91.705L197.934 91.4924C198.313 90.5365 198.773 89.6143 199.308 88.7358L199.794 89.032C199.267 89.8875 198.815 90.7869 198.442 91.7202L198.465 91.705ZM384.4 90.7102L384.111 90.2166C385.015 89.685 385.888 89.1611 386.716 88.6599L387.012 89.1459L384.4 90.7102ZM390.254 87.1487L389.951 86.6627C390.877 86.0856 391.735 85.5388 392.525 85.0376L392.829 85.516C392.024 86.0172 391.166 86.5792 390.254 87.1639V87.1487ZM201.974 86.0172L201.541 85.6451C202.171 84.8857 202.87 84.1264 203.621 83.367L204.024 83.7771C203.28 84.5364 202.596 85.2578 201.974 86.0172ZM395.995 83.4429L395.676 82.9645C397.317 81.871 398.19 81.2483 398.198 81.2483L398.524 81.7115C398.524 81.7115 397.643 82.3418 395.995 83.4429ZM206.826 81.2787L206.462 80.8382C207.221 80.2156 208.026 79.5777 208.869 78.955L209.203 79.4106C208.368 80.0333 207.57 80.656 206.826 81.2787ZM212.309 77.254L211.997 76.7756C212.833 76.2364 213.706 75.6896 214.587 75.1581L214.883 75.6517C214.002 76.1453 213.137 76.7148 212.309 77.254ZM218.179 73.776L217.905 73.2748C218.786 72.804 219.698 72.3332 220.616 71.8776L220.867 72.3863C219.956 72.842 219.052 73.3128 218.179 73.776ZM224.299 70.784L224.072 70.2601C225.013 69.8424 225.962 69.4475 226.881 69.0754L227.094 69.607C226.175 69.9715 225.233 70.3664 224.299 70.784Z" fill="#263238"/>
<path d="M402.774 68.2783L398.355 81.4763L408.143 73.4041L445.998 58.5354L402.774 68.2783Z" fill="#FD9700"/>
<path opacity="0.1" d="M402.774 68.2783L398.355 81.4763L408.143 73.4041L445.998 58.5354L402.774 68.2783Z" fill="black"/>
<path d="M409.51 76.4188L398.355 81.4763L408.143 73.4041L409.51 76.4188Z" fill="#263238"/>
<path d="M408.144 73.4041L445.999 58.5354L415.464 89.9586L408.144 73.4041Z" fill="#FD9700"/>
<path d="M402.777 68.2781L386.617 58.4441L446.001 58.5352L402.777 68.2781Z" fill="#FD9700"/>
<path d="M387.678 226.913C387.321 226.563 386.919 226.214 386.584 225.872L386.972 225.455C387.344 225.804 387.731 226.153 388.073 226.503L387.678 226.913Z" fill="#263238"/>
<path d="M382.66 287.101V286.532C383.677 286.532 384.695 286.44 385.697 286.342L385.75 286.911C384.748 287.01 383.715 287.071 382.66 287.101ZM378.863 287.033C377.86 286.98 376.835 286.889 375.825 286.767L375.886 286.205C376.904 286.319 377.921 286.41 378.924 286.471L378.863 287.033ZM389.547 286.327L389.426 285.772C390.436 285.56 391.415 285.309 392.349 285.013L392.516 285.56C391.56 285.856 390.557 286.114 389.54 286.327H389.547ZM372.028 286.197C371.056 286.015 370.046 285.803 369.036 285.567L369.166 285.013C370.168 285.248 371.163 285.453 372.135 285.636L372.028 286.197ZM365.338 284.588C364.374 284.299 363.394 283.988 362.422 283.661L362.604 283.122C363.569 283.449 364.541 283.76 365.498 284.041L365.338 284.588ZM396.108 284.17L395.865 283.654C396.775 283.225 397.658 282.74 398.508 282.203L398.812 282.689C397.934 283.234 397.027 283.729 396.093 284.17H396.108ZM358.838 282.355C357.896 281.983 356.939 281.596 356.005 281.186L356.233 280.669C357.16 281.064 358.109 281.429 359.043 281.823L358.838 282.355ZM401.88 280.358L401.492 279.933C402.234 279.262 402.925 278.536 403.558 277.761L403.998 278.118C403.345 278.918 402.632 279.667 401.864 280.358H401.88ZM352.52 279.598C351.614 279.168 350.702 278.713 349.786 278.232L350.044 277.73C350.963 278.201 351.867 278.649 352.77 279.082L352.52 279.598ZM346.445 276.424C345.549 275.923 344.675 275.407 343.81 274.906L344.098 274.42C344.964 274.936 345.837 275.445 346.726 275.938L346.445 276.424ZM406.147 274.906L405.646 274.632C406.122 273.751 406.531 272.834 406.869 271.891L407.4 272.088C407.047 273.061 406.621 274.005 406.125 274.913L406.147 274.906ZM340.567 272.87C339.709 272.316 338.866 271.746 338.031 271.177L338.357 270.706C339.185 271.276 340.028 271.838 340.879 272.392L340.567 272.87ZM334.925 268.967C334.105 268.36 333.292 267.745 332.495 267.122L332.844 266.674C333.642 267.297 334.447 267.904 335.267 268.504L334.925 268.967ZM408.372 268.36L407.818 268.261C407.981 267.271 408.085 266.272 408.129 265.269H408.699C408.65 266.308 408.534 267.343 408.35 268.367L408.372 268.36ZM329.503 264.753C328.744 264.1 327.939 263.446 327.172 262.786L327.536 262.353C328.296 263.014 329.055 263.667 329.868 264.312L329.503 264.753ZM408.023 261.518C407.924 260.538 407.78 259.528 407.583 258.526L408.145 258.419C408.342 259.445 408.494 260.462 408.585 261.457L408.023 261.518ZM324.309 260.265C323.549 259.581 322.79 258.898 322.031 258.207L322.426 257.789C323.165 258.483 323.909 259.166 324.658 259.839L324.309 260.265ZM319.305 255.587C318.545 254.881 317.854 254.167 317.133 253.453L317.535 253.043C318.257 253.764 318.978 254.471 319.707 255.177L319.305 255.587ZM406.633 254.865C406.352 253.931 406.018 252.967 405.646 252.003L406.178 251.798C406.557 252.777 406.892 253.749 407.18 254.698L406.633 254.865ZM314.414 250.75C313.7 250.028 312.994 249.299 312.288 248.57L312.69 248.175L314.817 250.347L314.414 250.75ZM404.15 248.525C403.725 247.636 403.254 246.725 402.76 245.836L403.254 245.563C403.755 246.459 404.226 247.378 404.667 248.282L404.15 248.525ZM309.653 245.821L307.549 243.611L307.967 243.224L310.07 245.426L309.653 245.821ZM400.824 242.579C400.293 241.743 399.723 240.9 399.131 240.058L399.601 239.731C400.194 240.574 400.763 241.432 401.302 242.275L400.824 242.579ZM304.929 240.855L302.826 238.653L303.244 238.258L305.34 240.46L304.929 240.855ZM396.875 237.012C396.268 236.253 395.622 235.441 394.962 234.651L395.395 234.286C396.063 235.046 396.716 235.881 397.323 236.663L396.875 237.012ZM300.199 235.904C299.492 235.144 298.794 234.446 298.08 233.717L298.49 233.314L300.609 235.509L300.199 235.904ZM392.456 231.818C391.787 231.059 391.096 230.345 390.375 229.608L390.785 229.206C391.506 229.965 392.205 230.725 392.881 231.431L392.456 231.818ZM295.414 231.021L293.265 228.864L293.668 228.462L295.825 230.618L295.414 231.021ZM290.554 226.199L288.36 224.095L288.747 223.678L290.949 225.789L290.554 226.199ZM285.58 221.498C284.821 220.815 284.062 220.131 283.302 219.448L283.682 219.023C284.441 219.706 285.201 220.397 285.96 221.081L285.58 221.498ZM280.485 216.942C279.726 216.281 278.966 215.621 278.207 214.968L278.571 214.527C279.331 215.188 280.128 215.856 280.887 216.517L280.485 216.942ZM275.253 212.538C274.493 211.9 273.681 211.269 272.876 210.632L273.233 210.183C274.038 210.821 274.828 211.459 275.61 212.097L275.253 212.538ZM269.876 208.277C269.117 207.662 268.267 207.055 267.439 206.447L267.781 205.992C268.608 206.599 269.421 207.207 270.218 207.822L269.876 208.277ZM264.363 204.222L261.865 202.483L262.192 202.013C263.034 202.597 263.87 203.174 264.69 203.759L264.363 204.222ZM258.714 200.365C257.871 199.81 257.02 199.256 256.162 198.709L256.466 198.231C257.332 198.778 258.182 199.332 259.025 199.886L258.714 200.365ZM252.935 196.697C252.077 196.173 251.211 195.649 250.33 195.125L250.619 194.639C251.507 195.163 252.373 195.687 253.231 196.211L252.935 196.697ZM247.042 193.219C246.169 192.718 245.288 192.224 244.392 191.7L244.665 191.199C245.561 191.7 246.45 192.194 247.323 192.718L247.042 193.219ZM241.043 189.923C240.154 189.452 239.258 188.989 238.347 188.518L238.605 188.017C239.516 188.48 240.42 188.951 241.309 189.422L241.043 189.923ZM234.968 186.817C234.072 186.369 233.153 185.929 232.234 185.488L232.477 184.972C233.403 185.412 234.315 185.861 235.218 186.301L234.968 186.817ZM228.786 183.879L226.015 182.626L226.242 182.109C227.184 182.519 228.111 182.937 229.022 183.362L228.786 183.879ZM222.529 181.107C221.603 180.712 220.669 180.347 219.719 179.93L219.94 179.398L222.749 180.583L222.529 181.107Z" fill="#263238"/>
<path d="M215.991 178.426L214.579 177.864L214.784 177.333L216.204 177.895L215.991 178.426Z" fill="#263238"/>
<path d="M217.798 168.911L222.81 182.694L212.278 174.462L172 159.859L217.798 168.911Z" fill="#FD9700"/>
<path opacity="0.1" d="M217.798 168.911L222.81 182.694L212.278 174.462L172 159.859L217.798 168.911Z" fill="black"/>
<path d="M210.927 177.674L222.811 182.694L212.279 174.462L210.927 177.674Z" fill="#263238"/>
<path d="M212.278 174.462L172 159.859L205.033 192.095L212.278 174.462Z" fill="#FD9700"/>
<path d="M217.798 168.911L234.535 158.105L172 159.859L217.798 168.911Z" fill="#FD9700"/>
<path d="M50.7784 255.532C50.3517 255.757 49.8213 255.593 49.5961 255.166L44.5619 245.626C44.336 245.197 44.4993 244.666 44.9259 244.441C45.3528 244.215 45.8838 244.381 46.1098 244.809L51.1439 254.349C51.3692 254.776 51.2052 255.306 50.7784 255.532ZM45.2198 244.997C45.1 245.061 45.0548 245.211 45.1187 245.332L50.1529 254.872C50.2162 254.992 50.3649 255.038 50.4846 254.975C50.6044 254.912 50.6505 254.763 50.5872 254.643L45.553 245.103C45.4891 244.981 45.3395 244.934 45.2198 244.997Z" fill="white"/>
<path d="M49.9434 255.142C49.8765 255.177 49.7976 255.188 49.7211 255.169C47.0546 254.511 44.1722 254.895 41.6054 256.249C41.4517 256.33 41.2613 256.272 41.1801 256.118L39.0266 252.037C38.9454 251.883 39.0044 251.692 39.1581 251.611C41.7231 250.258 43.6662 248.094 44.6291 245.519C44.6727 245.403 44.78 245.322 44.9039 245.315C45.0276 245.307 45.1445 245.373 45.2023 245.482L50.0749 254.716C50.1327 254.826 50.1208 254.959 50.0444 255.057C50.0166 255.093 49.982 255.121 49.9434 255.142L49.9434 255.142ZM41.5918 255.549C44.0098 254.346 46.6772 253.95 49.2035 254.414L44.9602 246.372C43.9163 248.722 42.0848 250.701 39.7287 252.018L41.5918 255.549Z" fill="white"/>
<path d="M41.6045 256.249L38.3085 257.989C37.8725 258.219 37.3208 258.032 37.0786 257.573L35.5098 254.6C35.2676 254.141 35.4252 253.581 35.8611 253.351L39.1572 251.611C39.3109 251.53 39.5013 251.589 39.5825 251.743L41.736 255.824C41.8172 255.978 41.7582 256.168 41.6045 256.249L41.6045 256.249ZM36.1549 253.907C36.0261 253.975 35.9864 254.155 36.0666 254.307L37.6354 257.28C37.7156 257.432 37.8858 257.5 38.0147 257.432L41.0324 255.84L39.1727 252.315L36.1549 253.907Z" fill="white"/>
<path d="M44.111 259.757L42.1344 260.8C42.0198 260.86 41.88 260.844 41.7819 260.76L38.3077 257.764C38.229 257.696 38.1889 257.593 38.2005 257.49C38.2123 257.386 38.2744 257.295 38.3664 257.247L40.3428 256.204C40.4574 256.144 40.5972 256.159 40.6953 256.244L44.1696 259.24C44.2484 259.308 44.2884 259.41 44.2768 259.514C44.265 259.617 44.2029 259.708 44.1109 259.757L44.111 259.757ZM42.0305 260.143L43.4089 259.415L40.4466 256.861L39.0683 257.588L42.0305 260.143Z" fill="white"/>
<path d="M49.4281 251.768C49.2744 251.849 49.084 251.79 49.0028 251.636L47.3326 248.471C47.2514 248.317 47.3104 248.127 47.4641 248.046C48.4911 247.504 49.7673 247.898 50.3093 248.926C50.8504 249.951 50.4551 251.226 49.4281 251.768ZM48.0521 248.485L49.3969 251.034C49.9162 250.597 50.0813 249.842 49.7525 249.219C49.423 248.595 48.706 248.304 48.0521 248.485Z" fill="white"/>
<path d="M47.2894 228.929C47.2894 230.793 45.778 232.305 43.9135 232.305C42.049 232.305 40.5376 230.793 40.5376 228.929C40.5376 227.064 42.049 225.553 43.9135 225.553C45.778 225.553 47.2894 227.064 47.2894 228.929Z" stroke="white" stroke-width="1.10526"/>
<path d="M67.5527 235.338C67.5527 238.002 65.3932 240.161 62.7294 240.161C60.0655 240.161 57.9061 238.002 57.9061 235.338C57.9061 232.674 60.0655 230.515 62.7294 230.515C65.3932 230.515 67.5527 232.674 67.5527 235.338Z" stroke="white" stroke-width="1.10526"/>
<path d="M67.5527 269.248C67.5527 271.912 65.3932 274.071 62.7294 274.071C60.0655 274.071 57.9061 271.912 57.9061 269.248C57.9061 266.584 60.0655 264.425 62.7294 264.425C65.3932 264.425 67.5527 266.584 67.5527 269.248Z" stroke="white" stroke-width="1.10526"/>
<path d="M29.5075 269.248C29.5075 271.912 27.348 274.071 24.6842 274.071C22.0204 274.071 19.8609 271.912 19.8609 269.248C19.8609 266.584 22.0204 264.425 24.6842 264.425C27.348 264.425 29.5075 266.584 29.5075 269.248Z" stroke="white" stroke-width="1.10526"/>
<path d="M27.8534 235.338C27.8534 238.002 25.6939 240.161 23.0301 240.161C20.3662 240.161 18.2068 238.002 18.2068 235.338C18.2068 232.674 20.3662 230.515 23.0301 230.515C25.6939 230.515 27.8534 232.674 27.8534 235.338Z" stroke="white" stroke-width="1.10526"/>
<path d="M46.4624 276.071C46.4624 277.936 44.951 279.447 43.0865 279.447C41.222 279.447 39.7106 277.936 39.7106 276.071C39.7106 274.207 41.222 272.695 43.0865 272.695C44.951 272.695 46.4624 274.207 46.4624 276.071Z" stroke="white" stroke-width="1.10526"/>
<path d="M70.4473 252.086C70.4473 253.95 68.9358 255.462 67.0714 255.462C65.2069 255.462 63.6954 253.95 63.6954 252.086C63.6954 250.221 65.2069 248.71 67.0714 248.71C68.9358 248.71 70.4473 250.221 70.4473 252.086Z" stroke="white" stroke-width="1.10526"/>
<path d="M23.3045 252.086C23.3045 253.95 21.793 255.462 19.9286 255.462C18.0641 255.462 16.5526 253.95 16.5526 252.086C16.5526 250.221 18.0641 248.71 19.9286 248.71C21.793 248.71 23.3045 250.221 23.3045 252.086Z" stroke="white" stroke-width="1.10526"/>
<path d="M57.6278 252.293C57.6278 260.21 51.21 266.628 43.2932 266.628C35.3765 266.628 28.9587 260.21 28.9587 252.293C28.9587 244.376 35.3765 237.959 43.2932 237.959C51.21 237.959 57.6278 244.376 57.6278 252.293Z" stroke="white" stroke-width="1.10526"/>
<path d="M43.7068 232.444V237.82" stroke="white" stroke-width="1.10526"/>
<path d="M43.2932 267.181V272.557" stroke="white" stroke-width="1.10526"/>
<path d="M23.4436 252.409H28.8196" stroke="white" stroke-width="1.10526"/>
<path d="M58.1804 252.591H63.5563" stroke="white" stroke-width="1.10526"/>
<line x1="59.176" y1="238.391" x2="54.2493" y2="242.808" stroke="white" stroke-width="1.10526"/>
<line y1="-0.552632" x2="6.61654" y2="-0.552632" transform="matrix(0.744603 0.667508 0.667508 -0.744603 27.579 238.233)" stroke="white" stroke-width="1.10526"/>
<line y1="-0.552632" x2="6.61654" y2="-0.552632" transform="matrix(-0.744603 -0.667508 -0.667508 0.744603 58.8071 266.06)" stroke="white" stroke-width="1.10526"/>
<line x1="27.2101" y1="265.396" x2="32.1368" y2="260.979" stroke="white" stroke-width="1.10526"/>
<path d="M132.345 68H17.6546C12.9765 68.0128 8.49389 69.7621 5.18594 72.8659C1.878 75.9697 0.0135993 80.1757 0 84.5652V95.6167C0.0135993 100.006 1.878 104.212 5.18594 107.316C8.49389 110.42 12.9765 112.169 17.6546 112.182H132.345L150 122V84.5168C149.969 80.1367 148.098 75.9449 144.792 72.8522C141.486 69.7595 137.014 68.0158 132.345 68Z" fill="#FAFAFB"/>
<path opacity="0.5" d="M102.09 85H18V87.28H102.09V85Z" fill="#407BFF"/>
<path opacity="0.5" d="M57 93.0903H18V95.3703H57V93.0903Z" fill="#407BFF"/>
<path opacity="0.5" d="M78.9498 93.0903H63.0898V95.3703H78.9498V93.0903Z" fill="#407BFF"/>
</svg>
