<svg width="75" height="75" viewBox="0 0 75 75" fill="none" xmlns="http://www.w3.org/2000/svg">
<circle cx="37.5" cy="37.5" r="37.5" fill="#4CAF50" fill-opacity="0.15"/>
<path fill-rule="evenodd" clip-rule="evenodd" d="M38.6316 15.4923L41.5207 18.7903L45.8415 16.9575C46.5414 16.6625 47.3477 17.0423 47.5712 17.765L48.8895 22.0155L53.576 22.0984C54.3336 22.1105 54.9266 22.7832 54.8329 23.5357L54.3114 27.9596L58.56 29.9425C59.2031 30.2438 59.4815 31.0096 59.1803 31.6532C58.6012 32.8532 57.5525 34.4 56.843 35.591L59.9201 39.1346C60.4169 39.708 60.3062 40.5947 59.6879 41.0301L56.0525 43.599L57.4221 48.0856C57.6436 48.8172 57.1835 49.5735 56.4373 49.721L52.078 50.5893L51.5058 55.2423C51.4084 56.0391 50.6097 56.5543 49.8477 56.3208L45.5972 55.3569L43.1821 59.3732C42.7903 60.027 41.9156 60.1991 41.3068 59.7447L37.7367 57.0796L33.8956 59.7675C33.2666 60.2067 32.4103 60.0017 32.035 59.3377L29.8629 55.4575L25.2542 56.3524C24.4706 56.5018 23.751 55.9157 23.7238 55.1252L23.3251 50.7709L18.7575 49.7153C18.0101 49.5438 17.5835 48.7672 17.8247 48.0451L19.2569 43.83L15.5127 41.0061C14.8672 40.5194 14.8266 39.5694 15.4171 39.027L18.3689 35.836L16.0962 31.7336C15.7235 31.0633 16.0165 30.2248 16.7171 29.9235L20.8011 28.1698L20.3942 23.4959C20.3246 22.6896 21.0132 22.0225 21.8093 22.0997L26.1459 22.1586L27.6743 17.7239C27.9332 16.9708 28.8002 16.6347 29.4996 17.0024L33.4767 18.8378L36.6747 15.4107C37.2171 14.8278 38.1423 14.8746 38.6316 15.4923ZM27.0592 37.9903C25.3491 36.2803 27.9496 33.6791 29.6603 35.3892L35.4209 41.1504L45.5086 29.9684C47.1218 28.1755 49.8527 30.6317 48.2389 32.426L36.9152 44.9775C36.2285 45.8217 34.9595 45.8907 34.1874 45.118L27.0592 37.9903Z" fill="#4CAF50"/>
</svg>
