<svg width="75" height="75" viewBox="0 0 75 75" fill="none" xmlns="http://www.w3.org/2000/svg">
<circle cx="37.5" cy="37.5" r="37.5" fill="#1C7EEB" fill-opacity="0.15"/>
<path d="M56.6358 39.262L54.5726 38.3712C54.521 38.3217 54.4179 38.3217 54.3663 38.2722C55.501 36.7875 56.1716 34.9068 56.1716 32.8282C56.1716 28.0771 52.6126 24.2169 48.2284 24.2169C43.8442 24.2169 40.2337 28.0771 40.2337 32.8282C40.2337 34.9068 40.9042 36.7875 42.0389 38.2722C41.9874 38.3217 41.8842 38.3217 41.8326 38.3712L39.7695 39.262C39.6147 39.3115 39.46 39.4105 39.3053 39.5095C38.3768 38.0247 36.9842 36.7875 35.2305 36.0451L33.1674 35.1543C33.1158 35.1048 33.0126 35.1048 32.9611 35.0553C34.0958 33.5706 34.7663 31.69 34.7663 29.6114C34.7663 24.8603 31.2074 21 26.8232 21C22.4389 21 18.88 24.8108 18.88 29.5619C18.88 31.6405 19.5505 33.5211 20.6853 35.0058C20.6337 35.0553 20.5305 35.0553 20.4789 35.1048L18.4158 35.9956C15.1147 37.4309 13 40.5983 13 44.0131V47.4774C13 49.853 15.0116 51.7336 17.4358 51.7336H34.5084C34.9726 53.6143 36.7263 55 38.8411 55H57.5642C60.04 55 62 53.0699 62 50.7438V47.2795C62 43.8151 59.8853 40.6972 56.6358 39.262ZM48.1768 27.5328C50.6526 27.5328 52.6642 29.9083 52.6642 32.8282C52.6642 35.7482 50.6526 38.1237 48.1768 38.1237C45.701 38.1237 43.6895 35.7482 43.6895 32.8282C43.6895 29.9083 45.701 27.5328 48.1768 27.5328ZM26.8232 24.2664C29.2989 24.2664 31.3105 26.6419 31.3105 29.5619C31.3105 32.4818 29.2989 34.8573 26.8232 34.8573C24.3474 34.8573 22.3358 32.4818 22.3358 29.5619C22.3358 26.6419 24.3474 24.2664 26.8232 24.2664ZM16.4558 47.4774V44.0131C16.4558 41.885 17.7968 39.9054 19.8084 39.0146L21.8716 38.1237C22.3874 37.8763 22.9032 37.6288 23.3674 37.2824C24.3989 37.8268 25.5853 38.1237 26.8232 38.1237C28.0611 38.1237 29.2474 37.8268 30.2789 37.2824C30.7432 37.5793 31.2589 37.8763 31.7747 38.1237L33.8379 39.0146C35.0758 39.5589 36.0042 40.4498 36.6232 41.5881C35.2305 43.1718 34.4568 45.1514 34.4568 47.2795V48.4178H17.4358C16.92 48.4178 16.4558 47.9723 16.4558 47.4774ZM58.5442 50.6943C58.5442 51.2387 58.08 51.6346 57.5642 51.6346H38.8411C38.2737 51.6346 37.8611 51.1892 37.8611 50.6943V47.23C37.8611 45.1019 39.2021 43.1223 41.2137 42.2314L43.2768 41.3406C43.7926 41.0932 44.3084 40.8457 44.7726 40.5488C45.8042 41.0932 46.9905 41.3901 48.2284 41.3901C49.4663 41.3901 50.6526 41.0932 51.6842 40.5488C52.1484 40.8457 52.6642 41.1426 53.18 41.3901L55.2432 42.2809C57.3063 43.1718 58.5958 45.1514 58.5958 47.2795V50.6943H58.5442Z" fill="#1C7EEB"/>
</svg>
